<?xml version="1.0" encoding="UTF-8" standalone="no"?><!-- Generator: Gravit.io --><svg xmlns="http://www.w3.org/2000/svg" xmlns:xlink="http://www.w3.org/1999/xlink" style="isolation:isolate" viewBox="0 0 500 500" width="500pt" height="500pt"><defs><clipPath id="_clipPath_RjnpJ7Jz7mH13TraLDNzDLgT1V3uWPZG"><rect width="500" height="500"/></clipPath></defs><g clip-path="url(#_clipPath_RjnpJ7Jz7mH13TraLDNzDLgT1V3uWPZG)"><g style="isolation:isolate"><mask id="_mask_bHUVHVNBCVRIh7eSXvDuXwAXWDFAbDUO"><ellipse vector-effect="non-scaling-stroke" cx="220.359375" cy="226.5" rx="62.999999999999986" ry="77.50000000000001" fill="white" stroke="none"/></mask><ellipse vector-effect="non-scaling-stroke" cx="220.359375" cy="226.5" rx="62.999999999999986" ry="77.50000000000001" fill="none"/><ellipse vector-effect="non-scaling-stroke" cx="220.359375" cy="226.5" rx="62.999999999999986" ry="77.50000000000001" fill="none" mask="url(#_mask_bHUVHVNBCVRIh7eSXvDuXwAXWDFAbDUO)" stroke-width="26" stroke="rgb(0,0,0)" stroke-linejoin="miter" stroke-linecap="square" stroke-miterlimit="3"/><mask id="_mask_Xo1XyT7Knu8AJImJkcymOJo09r8vTOfx"><ellipse vector-effect="non-scaling-stroke" cx="238.99999999999997" cy="226.5" rx="62.99999999999997" ry="77.50000000000001" fill="white" stroke="none"/></mask><ellipse vector-effect="non-scaling-stroke" cx="238.99999999999997" cy="226.5" rx="62.99999999999997" ry="77.50000000000001" fill="none"/><ellipse vector-effect="non-scaling-stroke" cx="238.99999999999997" cy="226.5" rx="62.99999999999997" ry="77.50000000000001" fill="none" mask="url(#_mask_Xo1XyT7Knu8AJImJkcymOJo09r8vTOfx)" stroke-width="26" stroke="rgb(0,0,0)" stroke-linejoin="miter" stroke-linecap="square" stroke-miterlimit="3"/><ellipse vector-effect="non-scaling-stroke" cx="194.56249999999994" cy="227.07291666666669" rx="55.43750000000006" ry="89" fill="rgb(255,255,255)"/><ellipse vector-effect="non-scaling-stroke" cx="238.99999999999997" cy="226.5" rx="55.43750000000003" ry="73.37500000000006" fill="rgb(255,255,255)"/><path d=" M 230.695 299.086 C 226.758 298.576 228.479 239.087 228.167 199.125 C 227.311 199.082 223.913 198.152 222.667 197.625 C 222.596 207.767 223.657 300.247 222.514 303.945" fill="rgb(0,0,0)"/><path d=" M 227.574 199.121 C 241.67 199.121 253.115 210.566 253.115 224.663 C 253.115 238.76 241.67 250.204 227.574 250.204 L 227.574 199.121 L 227.574 199.121 Z " fill="rgb(0,0,0)"/><ellipse vector-effect="non-scaling-stroke" cx="237.93750000000006" cy="212.8186848958334" rx="2.34375" ry="2.056966145833286" fill="rgb(255,255,255)"/><ellipse vector-effect="non-scaling-stroke" cx="237.93750000000006" cy="236.2985026041667" rx="2.34375" ry="2.056966145833286" fill="rgb(255,255,255)"/><line x1="249.62" y1="213.012" x2="258.516" y2="208.371" vector-effect="non-scaling-stroke" stroke-width="1" stroke="rgb(0,0,0)" stroke-linejoin="miter" stroke-linecap="square" stroke-miterlimit="3"/><line x1="249.984" y1="236.246" x2="258.422" y2="240.84" vector-effect="non-scaling-stroke" stroke-width="1" stroke="rgb(0,0,0)" stroke-linejoin="miter" stroke-linecap="square" stroke-miterlimit="3"/></g></g></svg>